STARTFONT 2.1
FONT -Monotype-Plantin-Bold-I-Normal--10-100-75-75-P-65-iso8859-5
SIZE 10 75 75
FONTBOUNDINGBOX 15 12 -2 -2

STARTPROPERTIES 24
FOUNDRY "Monotype"
FAMILY_NAME "Plantin"
WEIGHT_NAME "Bold"
SLANT "I"
SETWIDTH_NAME "Normal"
ADD_STYLE_NAME ""
PIXEL_SIZE 10
POINT_SIZE 100
RESOLUTION_X 75
RESOLUTION_Y 75
SPACING "P"
AVERAGE_WIDTH 65
CHARSET_REGISTRY "iso8859"
CHARSET_ENCODING "5"
FACE_NAME "Plantin Bold Inclined ISO Latin Cyrillic"
_DEC_DEVICE_FONTNAMES "PS=plantin-bin-latcyrillic"
COPYRIGHT "Copyright (c) 1994 Monotype Typography Ltd."
CAP_HEIGHT 8
X_HEIGHT 5
WEIGHT 10
QUAD_WIDTH 7
DEFAULT_CHAR 160
FONT_DESCENT 2
FONT_ASCENT 10
ENDPROPERTIES

CHARS 191

STARTCHAR space
ENCODING 32
SWIDTH 250 0
DWIDTH 3 0
BBX 0 0 0 0
BITMAP
ENDCHAR

STARTCHAR exclam
ENCODING 33
SWIDTH 365 0
DWIDTH 4 0
BBX 3 7 1 0
BITMAP
20
60
60
40
00
C0
C0
ENDCHAR

STARTCHAR quotedbl
ENCODING 34
SWIDTH 552 0
DWIDTH 6 0
BBX 3 3 2 4
BITMAP
A0
A0
A0
ENDCHAR

STARTCHAR numbersign
ENCODING 35
SWIDTH 500 0
DWIDTH 5 0
BBX 7 7 -1 0
BITMAP
14
14
7E
28
FC
50
50
ENDCHAR

STARTCHAR dollar
ENCODING 36
SWIDTH 542 0
DWIDTH 5 0
BBX 5 8 0 -1
BITMAP
20
70
68
60
30
B0
60
40
ENDCHAR

STARTCHAR percent
ENCODING 37
SWIDTH 833 0
DWIDTH 8 0
BBX 7 7 1 0
BITMAP
44
A8
A8
54
2A
2A
44
ENDCHAR

STARTCHAR ampersand
ENCODING 38
SWIDTH 958 0
DWIDTH 10 0
BBX 10 7 0 0
BITMAP
1E00
2080
7640
C980
C500
6200
3C00
ENDCHAR

STARTCHAR quoteright
ENCODING 39
SWIDTH 365 0
DWIDTH 4 0
BBX 2 4 1 3
BITMAP
40
C0
40
80
ENDCHAR

STARTCHAR parenleft
ENCODING 40
SWIDTH 437 0
DWIDTH 4 0
BBX 4 9 1 -2
BITMAP
10
20
40
C0
80
80
80
C0
40
ENDCHAR

STARTCHAR parenright
ENCODING 41
SWIDTH 437 0
DWIDTH 4 0
BBX 4 9 0 -2
BITMAP
20
30
10
10
10
30
20
40
80
ENDCHAR

STARTCHAR asterisk
ENCODING 42
SWIDTH 510 0
DWIDTH 5 0
BBX 5 5 0 2
BITMAP
20
F8
70
A8
20
ENDCHAR

STARTCHAR plus
ENCODING 43
SWIDTH 667 0
DWIDTH 7 0
BBX 5 5 1 1
BITMAP
20
20
F8
20
20
ENDCHAR

STARTCHAR comma
ENCODING 44
SWIDTH 365 0
DWIDTH 4 0
BBX 2 4 1 -2
BITMAP
40
C0
40
80
ENDCHAR

STARTCHAR minus
ENCODING 45
SWIDTH 667 0
DWIDTH 7 0
BBX 5 1 1 3
BITMAP
F8
ENDCHAR

STARTCHAR period
ENCODING 46
SWIDTH 292 0
DWIDTH 3 0
BBX 2 2 1 0
BITMAP
C0
C0
ENDCHAR

STARTCHAR slash
ENCODING 47
SWIDTH 281 0
DWIDTH 3 0
BBX 5 7 -1 0
BITMAP
08
10
10
20
40
40
80
ENDCHAR

STARTCHAR zero
ENCODING 48
SWIDTH 542 0
DWIDTH 5 0
BBX 5 7 0 0
BITMAP
30
58
D8
D8
D8
D0
60
ENDCHAR

STARTCHAR one
ENCODING 49
SWIDTH 542 0
DWIDTH 5 0
BBX 4 7 0 0
BITMAP
70
30
30
30
60
60
F0
ENDCHAR

STARTCHAR two
ENCODING 50
SWIDTH 542 0
DWIDTH 5 0
BBX 6 7 0 0
BITMAP
38
4C
0C
18
30
44
F8
ENDCHAR

STARTCHAR three
ENCODING 51
SWIDTH 542 0
DWIDTH 5 0
BBX 6 7 -1 0
BITMAP
18
2C
0C
38
18
98
70
ENDCHAR

STARTCHAR four
ENCODING 52
SWIDTH 542 0
DWIDTH 5 0
BBX 5 7 0 0
BITMAP
18
38
58
98
F0
30
30
ENDCHAR

STARTCHAR five
ENCODING 53
SWIDTH 542 0
DWIDTH 5 0
BBX 6 7 0 0
BITMAP
1C
30
30
18
18
B0
E0
ENDCHAR

STARTCHAR six
ENCODING 54
SWIDTH 542 0
DWIDTH 5 0
BBX 6 7 0 0
BITMAP
1C
20
60
70
D8
D8
70
ENDCHAR

STARTCHAR seven
ENCODING 55
SWIDTH 542 0
DWIDTH 5 0
BBX 5 7 0 0
BITMAP
78
98
10
30
20
60
40
ENDCHAR

STARTCHAR eight
ENCODING 56
SWIDTH 542 0
DWIDTH 5 0
BBX 5 7 0 0
BITMAP
30
58
58
70
B0
B0
60
ENDCHAR

STARTCHAR nine
ENCODING 57
SWIDTH 542 0
DWIDTH 5 0
BBX 6 7 0 0
BITMAP
38
6C
6C
38
18
10
E0
ENDCHAR

STARTCHAR colon
ENCODING 58
SWIDTH 365 0
DWIDTH 4 0
BBX 3 5 1 0
BITMAP
60
60
00
C0
C0
ENDCHAR

STARTCHAR semicolon
ENCODING 59
SWIDTH 365 0
DWIDTH 4 0
BBX 3 7 1 -2
BITMAP
60
60
00
40
C0
40
80
ENDCHAR

STARTCHAR less
ENCODING 60
SWIDTH 667 0
DWIDTH 7 0
BBX 5 5 1 1
BITMAP
08
38
E0
38
08
ENDCHAR

STARTCHAR equal
ENCODING 61
SWIDTH 667 0
DWIDTH 7 0
BBX 5 3 1 2
BITMAP
F8
00
F8
ENDCHAR

STARTCHAR greater
ENCODING 62
SWIDTH 667 0
DWIDTH 7 0
BBX 5 5 1 1
BITMAP
80
E0
38
E0
80
ENDCHAR

STARTCHAR question
ENCODING 63
SWIDTH 510 0
DWIDTH 5 0
BBX 4 7 1 0
BITMAP
60
30
30
60
00
C0
C0
ENDCHAR

STARTCHAR at
ENCODING 64
SWIDTH 833 0
DWIDTH 9 0
BBX 9 9 0 -2
BITMAP
1E00
6100
4E80
9280
B480
B500
5E80
6100
1E00
ENDCHAR

STARTCHAR A
ENCODING 65
SWIDTH 708 0
DWIDTH 7 0
BBX 9 7 -1 0
BITMAP
0300
0700
0B00
1300
3F00
4300
E780
ENDCHAR

STARTCHAR B
ENCODING 66
SWIDTH 750 0
DWIDTH 8 0
BBX 8 7 0 0
BITMAP
7E
33
33
3E
63
63
FE
ENDCHAR

STARTCHAR C
ENCODING 67
SWIDTH 750 0
DWIDTH 8 0
BBX 7 7 1 0
BITMAP
3E
62
C0
C0
C0
E4
78
ENDCHAR

STARTCHAR D
ENCODING 68
SWIDTH 802 0
DWIDTH 8 0
BBX 8 7 0 0
BITMAP
7E
37
33
33
63
66
FC
ENDCHAR

STARTCHAR E
ENCODING 69
SWIDTH 740 0
DWIDTH 7 0
BBX 8 7 0 0
BITMAP
7F
31
30
3C
60
62
FE
ENDCHAR

STARTCHAR F
ENCODING 70
SWIDTH 667 0
DWIDTH 7 0
BBX 8 7 0 0
BITMAP
7F
31
30
3C
60
60
F0
ENDCHAR

STARTCHAR G
ENCODING 71
SWIDTH 833 0
DWIDTH 8 0
BBX 7 7 1 0
BITMAP
3E
62
C0
CE
C4
E4
78
ENDCHAR

STARTCHAR H
ENCODING 72
SWIDTH 844 0
DWIDTH 8 0
BBX 9 7 0 0
BITMAP
7B80
3300
3300
3F00
6600
6600
EF00
ENDCHAR

STARTCHAR I
ENCODING 73
SWIDTH 417 0
DWIDTH 4 0
BBX 5 7 0 0
BITMAP
78
30
30
30
60
60
F0
ENDCHAR

STARTCHAR J
ENCODING 74
SWIDTH 396 0
DWIDTH 4 0
BBX 7 9 -2 -2
BITMAP
1E
0C
0C
0C
18
18
18
B0
60
ENDCHAR

STARTCHAR K
ENCODING 75
SWIDTH 740 0
DWIDTH 7 0
BBX 9 7 0 0
BITMAP
7B80
3100
3600
3800
6C00
6600
F700
ENDCHAR

STARTCHAR L
ENCODING 76
SWIDTH 667 0
DWIDTH 7 0
BBX 7 7 0 0
BITMAP
78
30
30
30
60
62
FE
ENDCHAR

STARTCHAR M
ENCODING 77
SWIDTH 979 0
DWIDTH 10 0
BBX 11 7 0 0
BITMAP
3C60
1CC0
2DC0
2EC0
4D80
4980
EBC0
ENDCHAR

STARTCHAR N
ENCODING 78
SWIDTH 812 0
DWIDTH 8 0
BBX 9 7 0 0
BITMAP
7380
3100
3900
5A00
4E00
4600
E700
ENDCHAR

STARTCHAR O
ENCODING 79
SWIDTH 854 0
DWIDTH 9 0
BBX 8 7 1 0
BITMAP
1E
63
63
C3
C6
C6
78
ENDCHAR

STARTCHAR P
ENCODING 80
SWIDTH 677 0
DWIDTH 7 0
BBX 8 7 0 0
BITMAP
7E
33
33
36
60
60
F0
ENDCHAR

STARTCHAR Q
ENCODING 81
SWIDTH 854 0
DWIDTH 9 0
BBX 8 9 1 -2
BITMAP
1E
63
63
C3
C6
C6
78
1C
07
ENDCHAR

STARTCHAR R
ENCODING 82
SWIDTH 781 0
DWIDTH 8 0
BBX 8 7 0 0
BITMAP
7E
33
33
3E
6C
66
F7
ENDCHAR

STARTCHAR S
ENCODING 83
SWIDTH 625 0
DWIDTH 6 0
BBX 7 7 0 0
BITMAP
3E
62
70
38
1C
8C
F8
ENDCHAR

STARTCHAR T
ENCODING 84
SWIDTH 729 0
DWIDTH 7 0
BBX 8 7 0 0
BITMAP
FF
99
18
18
30
30
78
ENDCHAR

STARTCHAR U
ENCODING 85
SWIDTH 792 0
DWIDTH 8 0
BBX 8 7 1 0
BITMAP
F7
62
62
C4
C4
C8
70
ENDCHAR

STARTCHAR V
ENCODING 86
SWIDTH 719 0
DWIDTH 7 0
BBX 8 7 1 0
BITMAP
F7
62
64
68
68
70
60
ENDCHAR

STARTCHAR W
ENCODING 87
SWIDTH 969 0
DWIDTH 10 0
BBX 12 7 0 0
BITMAP
EF70
6620
6640
6E80
6E80
7700
6600
ENDCHAR

STARTCHAR X
ENCODING 88
SWIDTH 771 0
DWIDTH 8 0
BBX 10 7 0 0
BITMAP
7BC0
3100
1A00
0C00
1C00
2600
F700
ENDCHAR

STARTCHAR Y
ENCODING 89
SWIDTH 677 0
DWIDTH 7 0
BBX 8 7 1 0
BITMAP
F7
62
64
38
30
60
F0
ENDCHAR

STARTCHAR Z
ENCODING 90
SWIDTH 687 0
DWIDTH 7 0
BBX 7 7 1 0
BITMAP
3E
4C
18
30
30
64
F8
ENDCHAR

STARTCHAR bracketleft
ENCODING 91
SWIDTH 385 0
DWIDTH 4 0
BBX 6 9 0 -2
BITMAP
3C
30
30
60
60
60
C0
C0
F0
ENDCHAR

STARTCHAR backslash
ENCODING 92
SWIDTH 281 0
DWIDTH 3 0
BBX 3 7 0 0
BITMAP
80
80
C0
40
60
20
20
ENDCHAR

STARTCHAR bracketright
ENCODING 93
SWIDTH 385 0
DWIDTH 4 0
BBX 6 9 -2 -2
BITMAP
3C
0C
0C
18
18
18
30
30
F0
ENDCHAR

STARTCHAR asciicircum
ENCODING 94
SWIDTH 573 0
DWIDTH 6 0
BBX 4 4 1 3
BITMAP
20
60
50
90
ENDCHAR

STARTCHAR underscore
ENCODING 95
SWIDTH 500 0
DWIDTH 5 0
BBX 5 1 0 -2
BITMAP
F8
ENDCHAR

STARTCHAR quoteleft
ENCODING 96
SWIDTH 365 0
DWIDTH 4 0
BBX 2 4 1 3
BITMAP
40
80
C0
80
ENDCHAR

STARTCHAR a
ENCODING 97
SWIDTH 594 0
DWIDTH 6 0
BBX 6 5 1 0
BITMAP
34
58
D8
D8
6C
ENDCHAR

STARTCHAR b
ENCODING 98
SWIDTH 615 0
DWIDTH 6 0
BBX 5 7 1 0
BITMAP
E0
60
70
D8
D8
D0
60
ENDCHAR

STARTCHAR c
ENCODING 99
SWIDTH 500 0
DWIDTH 5 0
BBX 5 5 1 0
BITMAP
78
E8
C0
D0
60
ENDCHAR

STARTCHAR d
ENCODING 100
SWIDTH 625 0
DWIDTH 6 0
BBX 6 7 1 0
BITMAP
1C
0C
6C
D8
D8
D8
6C
ENDCHAR

STARTCHAR e
ENCODING 101
SWIDTH 510 0
DWIDTH 5 0
BBX 5 5 1 0
BITMAP
38
68
F0
C0
70
ENDCHAR

STARTCHAR f
ENCODING 102
SWIDTH 333 0
DWIDTH 3 0
BBX 7 9 -2 -2
BITMAP
0E
18
3C
18
18
30
30
B0
E0
ENDCHAR

STARTCHAR g
ENCODING 103
SWIDTH 594 0
DWIDTH 6 0
BBX 7 7 0 -2
BITMAP
1A
2C
2C
18
70
D8
70
ENDCHAR

STARTCHAR h
ENCODING 104
SWIDTH 625 0
DWIDTH 6 0
BBX 5 7 1 0
BITMAP
E0
60
78
68
D8
D0
D8
ENDCHAR

STARTCHAR i
ENCODING 105
SWIDTH 333 0
DWIDTH 3 0
BBX 3 7 1 0
BITMAP
60
00
C0
60
E0
C0
60
ENDCHAR

STARTCHAR j
ENCODING 106
SWIDTH 323 0
DWIDTH 3 0
BBX 5 9 -1 -2
BITMAP
18
00
30
18
18
30
30
20
C0
ENDCHAR

STARTCHAR k
ENCODING 107
SWIDTH 625 0
DWIDTH 6 0
BBX 6 7 0 0
BITMAP
70
30
3C
64
78
58
DC
ENDCHAR

STARTCHAR l
ENCODING 108
SWIDTH 302 0
DWIDTH 3 0
BBX 3 7 1 0
BITMAP
E0
60
60
60
C0
C0
60
ENDCHAR

STARTCHAR m
ENCODING 109
SWIDTH 1000 0
DWIDTH 10 0
BBX 9 5 1 0
BITMAP
FF00
6D80
6D80
DB00
DB80
ENDCHAR

STARTCHAR n
ENCODING 110
SWIDTH 635 0
DWIDTH 6 0
BBX 5 5 1 0
BITMAP
F8
68
68
D0
D8
ENDCHAR

STARTCHAR o
ENCODING 111
SWIDTH 573 0
DWIDTH 6 0
BBX 5 5 1 0
BITMAP
78
D8
D8
D8
F0
ENDCHAR

STARTCHAR p
ENCODING 112
SWIDTH 615 0
DWIDTH 6 0
BBX 7 7 -1 -2
BITMAP
7C
36
36
36
7C
60
F0
ENDCHAR

STARTCHAR q
ENCODING 113
SWIDTH 594 0
DWIDTH 6 0
BBX 5 7 1 -2
BITMAP
68
D8
D8
D8
70
30
78
ENDCHAR

STARTCHAR r
ENCODING 114
SWIDTH 479 0
DWIDTH 5 0
BBX 6 5 1 0
BITMAP
EC
78
60
C0
C0
ENDCHAR

STARTCHAR s
ENCODING 115
SWIDTH 490 0
DWIDTH 5 0
BBX 5 5 1 0
BITMAP
38
60
70
30
E0
ENDCHAR

STARTCHAR t
ENCODING 116
SWIDTH 365 0
DWIDTH 4 0
BBX 4 6 1 0
BITMAP
60
F0
60
C0
C0
60
ENDCHAR

STARTCHAR u
ENCODING 117
SWIDTH 635 0
DWIDTH 6 0
BBX 6 5 1 0
BITMAP
EC
6C
D8
D8
7C
ENDCHAR

STARTCHAR v
ENCODING 118
SWIDTH 573 0
DWIDTH 6 0
BBX 6 5 0 0
BITMAP
68
AC
6C
68
30
ENDCHAR

STARTCHAR w
ENCODING 119
SWIDTH 854 0
DWIDTH 9 0
BBX 9 5 0 0
BITMAP
6500
AD80
6D80
6D00
3600
ENDCHAR

STARTCHAR x
ENCODING 120
SWIDTH 615 0
DWIDTH 6 0
BBX 6 5 1 0
BITMAP
6C
38
30
50
D8
ENDCHAR

STARTCHAR y
ENCODING 121
SWIDTH 552 0
DWIDTH 6 0
BBX 7 7 0 -2
BITMAP
64
B6
34
18
18
90
60
ENDCHAR

STARTCHAR z
ENCODING 122
SWIDTH 500 0
DWIDTH 5 0
BBX 5 5 0 0
BITMAP
78
98
30
68
F0
ENDCHAR

STARTCHAR braceleft
ENCODING 123
SWIDTH 396 0
DWIDTH 4 0
BBX 6 9 0 -2
BITMAP
0C
18
30
20
C0
20
60
60
30
ENDCHAR

STARTCHAR bar
ENCODING 124
SWIDTH 219 0
DWIDTH 2 0
BBX 1 9 1 -2
BITMAP
80
80
80
80
80
80
80
80
80
ENDCHAR

STARTCHAR braceright
ENCODING 125
SWIDTH 396 0
DWIDTH 4 0
BBX 6 9 -1 -2
BITMAP
30
18
18
10
0C
10
30
60
C0
ENDCHAR

STARTCHAR asciitilde
ENCODING 126
SWIDTH 573 0
DWIDTH 6 0
BBX 5 2 1 2
BITMAP
68
B0
ENDCHAR

STARTCHAR space
ENCODING 160
SWIDTH 250 0
DWIDTH 3 0
BBX 0 0 0 0
BITMAP
ENDCHAR

STARTCHAR afii10023
ENCODING 161
SWIDTH 740 0
DWIDTH 7 0
BBX 8 9 0 0
BITMAP
1B
00
7F
31
30
3C
60
62
FE
ENDCHAR

STARTCHAR afii10051
ENCODING 162
SWIDTH 865 0
DWIDTH 9 0
BBX 8 7 1 0
BITMAP
FF
99
18
1E
33
33
76
ENDCHAR

STARTCHAR afii10052
ENCODING 163
SWIDTH 656 0
DWIDTH 7 0
BBX 8 10 0 0
BITMAP
04
08
00
7F
31
30
30
60
60
F0
ENDCHAR

STARTCHAR afii10053
ENCODING 164
SWIDTH 771 0
DWIDTH 8 0
BBX 8 7 1 0
BITMAP
3E
63
C0
F8
C0
C6
7C
ENDCHAR

STARTCHAR afii10054
ENCODING 165
SWIDTH 625 0
DWIDTH 6 0
BBX 7 7 0 0
BITMAP
3E
62
70
38
1C
8C
F8
ENDCHAR

STARTCHAR afii10055
ENCODING 166
SWIDTH 417 0
DWIDTH 4 0
BBX 5 7 0 0
BITMAP
78
30
30
30
60
60
F0
ENDCHAR

STARTCHAR afii10056
ENCODING 167
SWIDTH 417 0
DWIDTH 4 0
BBX 6 9 0 0
BITMAP
6C
00
78
30
30
30
60
60
F0
ENDCHAR

STARTCHAR afii10057
ENCODING 168
SWIDTH 396 0
DWIDTH 4 0
BBX 7 9 -2 -2
BITMAP
1E
0C
0C
0C
18
18
18
B0
60
ENDCHAR

STARTCHAR afii10058
ENCODING 169
SWIDTH 1099 0
DWIDTH 11 0
BBX 11 7 0 0
BITMAP
3F80
1300
1300
13C0
2660
A660
CFC0
ENDCHAR

STARTCHAR afii10059
ENCODING 170
SWIDTH 1125 0
DWIDTH 11 0
BBX 11 7 0 0
BITMAP
7780
3300
3300
3FC0
6660
6660
F7C0
ENDCHAR

STARTCHAR afii10060
ENCODING 171
SWIDTH 906 0
DWIDTH 9 0
BBX 8 7 0 0
BITMAP
78
30
36
3B
63
66
F7
ENDCHAR

STARTCHAR afii10061
ENCODING 172
SWIDTH 723 0
DWIDTH 7 0
BBX 8 10 0 0
BITMAP
04
08
00
73
34
34
38
6C
6C
E6
ENDCHAR

STARTCHAR hyphen
ENCODING 173
SWIDTH 458 0
DWIDTH 5 0
BBX 4 1 1 2
BITMAP
F0
ENDCHAR

STARTCHAR afii10062
ENCODING 174
SWIDTH 719 0
DWIDTH 7 0
BBX 7 10 1 0
BITMAP
24
18
00
EE
64
68
38
30
A0
C0
ENDCHAR

STARTCHAR afii10145
ENCODING 175
SWIDTH 844 0
DWIDTH 8 0
BBX 9 9 0 -2
BITMAP
7380
3300
3300
3300
6600
6600
FF00
1000
1000
ENDCHAR

STARTCHAR afii10017
ENCODING 176
SWIDTH 708 0
DWIDTH 7 0
BBX 9 7 -1 0
BITMAP
0300
0700
0B00
1300
3F00
4300
E780
ENDCHAR

STARTCHAR afii10018
ENCODING 177
SWIDTH 729 0
DWIDTH 7 0
BBX 8 7 0 0
BITMAP
7F
31
30
3C
66
66
FC
ENDCHAR

STARTCHAR afii10019
ENCODING 178
SWIDTH 750 0
DWIDTH 8 0
BBX 8 7 0 0
BITMAP
7E
33
33
3E
63
63
FE
ENDCHAR

STARTCHAR afii10020
ENCODING 179
SWIDTH 633 0
DWIDTH 7 0
BBX 8 7 0 0
BITMAP
7F
31
30
30
60
60
F0
ENDCHAR

STARTCHAR afii10021
ENCODING 180
SWIDTH 719 0
DWIDTH 7 0
BBX 9 9 -1 -2
BITMAP
3F80
1300
1300
1300
2600
2600
7E00
C300
8100
ENDCHAR

STARTCHAR afii10022
ENCODING 181
SWIDTH 740 0
DWIDTH 7 0
BBX 8 7 0 0
BITMAP
7F
31
30
3C
60
62
FE
ENDCHAR

STARTCHAR afii10024
ENCODING 182
SWIDTH 915 0
DWIDTH 9 0
BBX 11 7 0 0
BITMAP
6F60
36C0
1E80
3700
6D80
6D80
DEC0
ENDCHAR

STARTCHAR afii10025
ENCODING 183
SWIDTH 656 0
DWIDTH 7 0
BBX 6 7 1 0
BITMAP
38
4C
0C
38
0C
98
70
ENDCHAR

STARTCHAR afii10026
ENCODING 184
SWIDTH 844 0
DWIDTH 8 0
BBX 10 7 0 0
BITMAP
79C0
3380
3580
3580
6B00
7300
E780
ENDCHAR

STARTCHAR afii10027
ENCODING 185
SWIDTH 844 0
DWIDTH 8 0
BBX 10 10 0 0
BITMAP
0900
0600
0000
79C0
3380
3580
3580
6B00
7300
E780
ENDCHAR

STARTCHAR afii10028
ENCODING 186
SWIDTH 723 0
DWIDTH 7 0
BBX 8 7 0 0
BITMAP
7B
35
34
38
6C
6C
E6
ENDCHAR

STARTCHAR afii10029
ENCODING 187
SWIDTH 835 0
DWIDTH 8 0
BBX 9 7 0 0
BITMAP
3F80
1300
1300
1300
2600
A600
CF00
ENDCHAR

STARTCHAR afii10030
ENCODING 188
SWIDTH 979 0
DWIDTH 10 0
BBX 11 7 0 0
BITMAP
3C60
1CC0
2DC0
2EC0
4D80
4980
EBC0
ENDCHAR

STARTCHAR afii10031
ENCODING 189
SWIDTH 844 0
DWIDTH 8 0
BBX 9 7 0 0
BITMAP
7B80
3300
3300
3F00
6600
6600
EF00
ENDCHAR

STARTCHAR afii10032
ENCODING 190
SWIDTH 854 0
DWIDTH 9 0
BBX 8 7 1 0
BITMAP
1E
63
63
C3
C6
C6
78
ENDCHAR

STARTCHAR afii10033
ENCODING 191
SWIDTH 854 0
DWIDTH 8 0
BBX 9 7 0 0
BITMAP
7F80
3300
3300
3300
6600
6600
E700
ENDCHAR

STARTCHAR afii10034
ENCODING 192
SWIDTH 677 0
DWIDTH 7 0
BBX 8 7 0 0
BITMAP
7E
33
33
36
60
60
F0
ENDCHAR

STARTCHAR afii10035
ENCODING 193
SWIDTH 750 0
DWIDTH 8 0
BBX 7 7 1 0
BITMAP
3E
62
C0
C0
C0
E4
78
ENDCHAR

STARTCHAR afii10036
ENCODING 194
SWIDTH 729 0
DWIDTH 7 0
BBX 8 7 0 0
BITMAP
FF
99
18
18
30
30
78
ENDCHAR

STARTCHAR afii10037
ENCODING 195
SWIDTH 719 0
DWIDTH 7 0
BBX 7 7 1 0
BITMAP
EE
64
68
38
30
A0
C0
ENDCHAR

STARTCHAR afii10038
ENCODING 196
SWIDTH 1021 0
DWIDTH 10 0
BBX 10 7 0 0
BITMAP
0600
1F80
64C0
CCC0
C980
7E00
1800
ENDCHAR

STARTCHAR afii10039
ENCODING 197
SWIDTH 771 0
DWIDTH 8 0
BBX 10 7 0 0
BITMAP
7BC0
3100
1A00
0C00
1C00
2600
F700
ENDCHAR

STARTCHAR afii10040
ENCODING 198
SWIDTH 844 0
DWIDTH 8 0
BBX 9 9 0 -2
BITMAP
7380
3300
3300
3300
6600
6600
FE00
0300
0100
ENDCHAR

STARTCHAR afii10041
ENCODING 199
SWIDTH 802 0
DWIDTH 8 0
BBX 8 7 1 0
BITMAP
F7
66
C6
CC
7C
0C
1E
ENDCHAR

STARTCHAR afii10042
ENCODING 200
SWIDTH 1083 0
DWIDTH 11 0
BBX 11 7 0 0
BITMAP
76E0
36C0
36C0
6D80
6D80
6D80
FFC0
ENDCHAR

STARTCHAR afii10043
ENCODING 201
SWIDTH 1083 0
DWIDTH 11 0
BBX 11 9 0 -2
BITMAP
76E0
36C0
36C0
6D80
6D80
6D80
FFC0
0060
0020
ENDCHAR

STARTCHAR afii10044
ENCODING 202
SWIDTH 823 0
DWIDTH 8 0
BBX 8 7 0 0
BITMAP
7C
D8
18
1E
33
33
7E
ENDCHAR

STARTCHAR afii10045
ENCODING 203
SWIDTH 1050 0
DWIDTH 11 0
BBX 12 7 0 0
BITMAP
78F0
3060
3060
3C60
66C0
66C0
FDE0
ENDCHAR

STARTCHAR afii10046
ENCODING 204
SWIDTH 719 0
DWIDTH 7 0
BBX 7 7 0 0
BITMAP
78
30
30
3C
66
66
FC
ENDCHAR

STARTCHAR afii10047
ENCODING 205
SWIDTH 777 0
DWIDTH 8 0
BBX 8 7 0 0
BITMAP
3E
63
03
1F
03
C6
7C
ENDCHAR

STARTCHAR afii10048
ENCODING 206
SWIDTH 1250 0
DWIDTH 13 0
BBX 13 7 0 0
BITMAP
78F0
3318
3318
3E18
6630
6630
F3C0
ENDCHAR

STARTCHAR afii10049
ENCODING 207
SWIDTH 792 0
DWIDTH 8 0
BBX 9 7 0 0
BITMAP
1F80
3300
3300
1E00
3600
6600
EF00
ENDCHAR

STARTCHAR afii10065
ENCODING 208
SWIDTH 585 0
DWIDTH 6 0
BBX 6 5 1 0
BITMAP
34
58
D8
D8
6C
ENDCHAR

STARTCHAR afii10066
ENCODING 209
SWIDTH 573 0
DWIDTH 6 0
BBX 6 8 1 0
BITMAP
04
38
40
70
D8
D8
D0
60
ENDCHAR

STARTCHAR afii10067
ENCODING 210
SWIDTH 514 0
DWIDTH 5 0
BBX 5 5 1 0
BITMAP
38
68
F0
D0
60
ENDCHAR

STARTCHAR afii10068
ENCODING 211
SWIDTH 378 0
DWIDTH 4 0
BBX 4 5 1 0
BITMAP
70
30
40
C0
E0
ENDCHAR

STARTCHAR afii10069
ENCODING 212
SWIDTH 568 0
DWIDTH 6 0
BBX 5 7 1 0
BITMAP
20
10
18
78
D8
D0
60
ENDCHAR

STARTCHAR afii10070
ENCODING 213
SWIDTH 517 0
DWIDTH 5 0
BBX 5 5 1 0
BITMAP
38
68
F0
C0
70
ENDCHAR

STARTCHAR afii10072
ENCODING 214
SWIDTH 1083 0
DWIDTH 11 0
BBX 11 5 1 0
BITMAP
64E0
B5A0
3F80
A9A0
C8C0
ENDCHAR

STARTCHAR afii10073
ENCODING 215
SWIDTH 407 0
DWIDTH 4 0
BBX 4 5 0 0
BITMAP
70
10
60
30
E0
ENDCHAR

STARTCHAR afii10074
ENCODING 216
SWIDTH 635 0
DWIDTH 6 0
BBX 6 5 1 0
BITMAP
EC
6C
D8
D8
7C
ENDCHAR

STARTCHAR afii10075
ENCODING 217
SWIDTH 635 0
DWIDTH 6 0
BBX 6 8 1 0
BITMAP
48
30
00
EC
6C
D8
D8
7C
ENDCHAR

STARTCHAR afii10076
ENCODING 218
SWIDTH 563 0
DWIDTH 6 0
BBX 8 5 -1 0
BITMAP
73
35
38
6C
EE
ENDCHAR

STARTCHAR afii10077
ENCODING 219
SWIDTH 594 0
DWIDTH 6 0
BBX 6 5 0 0
BITMAP
1C
2C
4C
58
DC
ENDCHAR

STARTCHAR afii10078
ENCODING 220
SWIDTH 729 0
DWIDTH 7 0
BBX 9 5 -1 0
BITMAP
1200
3600
3E00
5A80
D300
ENDCHAR

STARTCHAR afii10079
ENCODING 221
SWIDTH 635 0
DWIDTH 6 0
BBX 7 5 0 0
BITMAP
EC
6C
78
DA
DC
ENDCHAR

STARTCHAR afii10080
ENCODING 222
SWIDTH 573 0
DWIDTH 6 0
BBX 5 5 1 0
BITMAP
78
D8
D8
D8
F0
ENDCHAR

STARTCHAR afii10081
ENCODING 223
SWIDTH 635 0
DWIDTH 6 0
BBX 5 5 1 0
BITMAP
F8
68
68
D0
D8
ENDCHAR

STARTCHAR afii10082
ENCODING 224
SWIDTH 612 0
DWIDTH 6 0
BBX 7 7 -1 -2
BITMAP
7C
36
36
36
7C
60
F0
ENDCHAR

STARTCHAR afii10083
ENCODING 225
SWIDTH 506 0
DWIDTH 5 0
BBX 5 5 1 0
BITMAP
78
E8
C0
D0
60
ENDCHAR

STARTCHAR afii10084
ENCODING 226
SWIDTH 1000 0
DWIDTH 10 0
BBX 9 5 1 0
BITMAP
FF00
6D80
6D80
DB00
DB80
ENDCHAR

STARTCHAR afii10085
ENCODING 227
SWIDTH 552 0
DWIDTH 6 0
BBX 7 7 0 -2
BITMAP
64
B6
34
18
18
90
60
ENDCHAR

STARTCHAR afii10086
ENCODING 228
SWIDTH 781 0
DWIDTH 8 0
BBX 7 9 1 -2
BITMAP
0C
08
3C
56
D6
D4
78
20
60
ENDCHAR

STARTCHAR afii10087
ENCODING 229
SWIDTH 615 0
DWIDTH 6 0
BBX 6 5 1 0
BITMAP
6C
38
30
50
D8
ENDCHAR

STARTCHAR afii10088
ENCODING 230
SWIDTH 625 0
DWIDTH 6 0
BBX 6 7 1 -2
BITMAP
EC
6C
D8
D8
7C
10
20
ENDCHAR

STARTCHAR afii10089
ENCODING 231
SWIDTH 615 0
DWIDTH 6 0
BBX 6 5 0 0
BITMAP
D8
58
30
34
18
ENDCHAR

STARTCHAR afii10090
ENCODING 232
SWIDTH 1000 0
DWIDTH 10 0
BBX 9 5 1 0
BITMAP
ED80
6D80
DB00
FF00
DB80
ENDCHAR

STARTCHAR afii10091
ENCODING 233
SWIDTH 1000 0
DWIDTH 10 0
BBX 9 7 1 -2
BITMAP
ED80
6D80
DB00
FF00
DB80
0200
0400
ENDCHAR

STARTCHAR afii10092
ENCODING 234
SWIDTH 521 0
DWIDTH 5 0
BBX 5 5 0 0
BITMAP
E0
A0
30
58
70
ENDCHAR

STARTCHAR afii10093
ENCODING 235
SWIDTH 781 0
DWIDTH 8 0
BBX 7 5 1 0
BITMAP
CE
46
6C
BC
EE
ENDCHAR

STARTCHAR afii10094
ENCODING 236
SWIDTH 510 0
DWIDTH 5 0
BBX 4 5 1 0
BITMAP
C0
40
60
B0
E0
ENDCHAR

STARTCHAR afii10095
ENCODING 237
SWIDTH 483 0
DWIDTH 5 0
BBX 5 5 1 0
BITMAP
70
98
38
90
E0
ENDCHAR

STARTCHAR afii10096
ENCODING 238
SWIDTH 867 0
DWIDTH 9 0
BBX 10 5 -1 0
BITMAP
7BC0
36C0
3EC0
66C0
F780
ENDCHAR

STARTCHAR afii10097
ENCODING 239
SWIDTH 603 0
DWIDTH 6 0
BBX 7 5 0 0
BITMAP
3C
6C
38
5A
DC
ENDCHAR

STARTCHAR afii61352
ENCODING 240
SWIDTH 1135 0
DWIDTH 11 0
BBX 11 7 0 0
BITMAP
3180
1A00
1A40
3AA0
2E40
2C00
C4E0
ENDCHAR

STARTCHAR afii10071
ENCODING 241
SWIDTH 517 0
DWIDTH 5 0
BBX 6 7 1 0
BITMAP
6C
00
38
68
F0
C0
70
ENDCHAR

STARTCHAR afii10099
ENCODING 242
SWIDTH 631 0
DWIDTH 6 0
BBX 5 9 1 -2
BITMAP
40
F8
60
78
C8
D0
D0
10
20
ENDCHAR

STARTCHAR afii10100
ENCODING 243
SWIDTH 512 0
DWIDTH 5 0
BBX 5 8 0 0
BITMAP
08
10
00
F8
68
60
C0
C0
ENDCHAR

STARTCHAR afii10101
ENCODING 244
SWIDTH 547 0
DWIDTH 5 0
BBX 5 5 1 0
BITMAP
38
48
E0
C8
70
ENDCHAR

STARTCHAR afii10102
ENCODING 245
SWIDTH 490 0
DWIDTH 5 0
BBX 5 5 1 0
BITMAP
38
60
70
30
E0
ENDCHAR

STARTCHAR afii10103
ENCODING 246
SWIDTH 333 0
DWIDTH 3 0
BBX 3 7 1 0
BITMAP
60
00
C0
60
E0
C0
60
ENDCHAR

STARTCHAR afii10104
ENCODING 247
SWIDTH 333 0
DWIDTH 3 0
BBX 5 7 0 0
BITMAP
D8
00
60
30
70
60
30
ENDCHAR

STARTCHAR afii10105
ENCODING 248
SWIDTH 323 0
DWIDTH 3 0
BBX 5 9 -1 -2
BITMAP
18
00
30
18
18
30
30
20
C0
ENDCHAR

STARTCHAR afii10106
ENCODING 249
SWIDTH 771 0
DWIDTH 8 0
BBX 7 5 1 0
BITMAP
38
48
4C
56
9C
ENDCHAR

STARTCHAR afii10107
ENCODING 250
SWIDTH 823 0
DWIDTH 8 0
BBX 7 5 1 0
BITMAP
EC
68
7C
D6
DC
ENDCHAR

STARTCHAR afii10108
ENCODING 251
SWIDTH 625 0
DWIDTH 6 0
BBX 5 7 1 0
BITMAP
40
F8
60
78
C8
D0
D8
ENDCHAR

STARTCHAR afii10109
ENCODING 252
SWIDTH 563 0
DWIDTH 6 0
BBX 8 8 -1 0
BITMAP
04
08
00
73
35
38
6C
EE
ENDCHAR

STARTCHAR section
ENCODING 253
SWIDTH 594 0
DWIDTH 6 0
BBX 6 9 0 -2
BITMAP
1C
34
50
50
28
28
18
90
E0
ENDCHAR

STARTCHAR afii10110
ENCODING 254
SWIDTH 552 0
DWIDTH 6 0
BBX 7 10 0 -2
BITMAP
24
18
00
64
B6
34
18
18
90
60
ENDCHAR

STARTCHAR afii10193
ENCODING 255
SWIDTH 635 0
DWIDTH 6 0
BBX 6 7 1 -2
BITMAP
EC
6C
D8
D8
7C
40
80
ENDCHAR
ENDFONT
